<?xml version="1.0" encoding="UTF-8" standalone="no"?>
<!-- Created with Inkscape (http://www.inkscape.org/) -->
<svg
   xmlns:dc="http://purl.org/dc/elements/1.1/"
   xmlns:cc="http://creativecommons.org/ns#"
   xmlns:rdf="http://www.w3.org/1999/02/22-rdf-syntax-ns#"
   xmlns:svg="http://www.w3.org/2000/svg"
   xmlns="http://www.w3.org/2000/svg"
   xmlns:xlink="http://www.w3.org/1999/xlink"
   xmlns:sodipodi="http://sodipodi.sourceforge.net/DTD/sodipodi-0.dtd"
   xmlns:inkscape="http://www.inkscape.org/namespaces/inkscape"
   width="210mm"
   height="297mm"
   id="svg2"
   sodipodi:version="0.32"
   inkscape:version="0.46"
   sodipodi:docname="sandclock.svg"
   inkscape:output_extension="org.inkscape.output.svg.inkscape">
  <defs
     id="defs4">
    <linearGradient
       id="linearGradient3616">
      <stop
         style="stop-color:#747171;stop-opacity:1;"
         offset="0"
         id="stop3618" />
      <stop
         style="stop-color:#ffffff;stop-opacity:0.98319328;"
         offset="1"
         id="stop3620" />
    </linearGradient>
    <inkscape:perspective
       sodipodi:type="inkscape:persp3d"
       inkscape:vp_x="0 : 526.18109 : 1"
       inkscape:vp_y="0 : 1000 : 0"
       inkscape:vp_z="744.09448 : 526.18109 : 1"
       inkscape:persp3d-origin="372.04724 : 350.78739 : 1"
       id="perspective10" />
    <inkscape:perspective
       id="perspective3632"
       inkscape:persp3d-origin="0.5 : 0.33333333 : 1"
       inkscape:vp_z="1 : 0.5 : 1"
       inkscape:vp_y="0 : 1000 : 0"
       inkscape:vp_x="0 : 0.5 : 1"
       sodipodi:type="inkscape:persp3d" />
    <linearGradient
       inkscape:collect="always"
       xlink:href="#linearGradient3616-9"
       id="linearGradient3622-4"
       x1="565.93115"
       y1="824.4411"
       x2="163.84714"
       y2="183.01251"
       gradientUnits="userSpaceOnUse" />
    <linearGradient
       inkscape:collect="always"
       id="linearGradient3616-9">
      <stop
         style="stop-color:#9f9f9f;stop-opacity:1"
         offset="0"
         id="stop3618-8" />
      <stop
         style="stop-color:#948585;stop-opacity:0;"
         offset="1"
         id="stop3620-0" />
    </linearGradient>
    <inkscape:perspective
       id="perspective3673"
       inkscape:persp3d-origin="0.5 : 0.33333333 : 1"
       inkscape:vp_z="1 : 0.5 : 1"
       inkscape:vp_y="0 : 1000 : 0"
       inkscape:vp_x="0 : 0.5 : 1"
       sodipodi:type="inkscape:persp3d" />
    <linearGradient
       inkscape:collect="always"
       xlink:href="#linearGradient3616-2"
       id="linearGradient3663-0"
       gradientUnits="userSpaceOnUse"
       x1="565.93115"
       y1="824.4411"
       x2="163.84714"
       y2="183.01251" />
    <linearGradient
       inkscape:collect="always"
       id="linearGradient3616-2">
      <stop
         style="stop-color:#9f9f9f;stop-opacity:1"
         offset="0"
         id="stop3618-3" />
      <stop
         style="stop-color:#948585;stop-opacity:0;"
         offset="1"
         id="stop3620-7" />
    </linearGradient>
    <linearGradient
       inkscape:collect="always"
       xlink:href="#linearGradient3616"
       id="linearGradient3722"
       gradientUnits="userSpaceOnUse"
       x1="554.50256"
       y1="817.29822"
       x2="176.70427"
       y2="183.01251"
       gradientTransform="translate(-31.428571,-1.4285714)" />
    <inkscape:perspective
       id="perspective3732"
       inkscape:persp3d-origin="0.5 : 0.33333333 : 1"
       inkscape:vp_z="1 : 0.5 : 1"
       inkscape:vp_y="0 : 1000 : 0"
       inkscape:vp_x="0 : 0.5 : 1"
       sodipodi:type="inkscape:persp3d" />
    <linearGradient
       inkscape:collect="always"
       xlink:href="#linearGradient3616-5"
       id="linearGradient3722-6"
       gradientUnits="userSpaceOnUse"
       x1="565.93115"
       y1="824.4411"
       x2="163.84714"
       y2="183.01251"
       gradientTransform="translate(-31.428571,-1.4285714)" />
    <linearGradient
       inkscape:collect="always"
       id="linearGradient3616-5">
      <stop
         style="stop-color:#9f9f9f;stop-opacity:1"
         offset="0"
         id="stop3618-9" />
      <stop
         style="stop-color:#948585;stop-opacity:0;"
         offset="1"
         id="stop3620-4" />
    </linearGradient>
    <linearGradient
       inkscape:collect="always"
       xlink:href="#linearGradient3616"
       id="linearGradient3771"
       x1="145.35454"
       y1="791.41852"
       x2="145.35454"
       y2="269.16968"
       gradientUnits="userSpaceOnUse" />
    <inkscape:perspective
       id="perspective3781"
       inkscape:persp3d-origin="0.5 : 0.33333333 : 1"
       inkscape:vp_z="1 : 0.5 : 1"
       inkscape:vp_y="0 : 1000 : 0"
       inkscape:vp_x="0 : 0.5 : 1"
       sodipodi:type="inkscape:persp3d" />
    <linearGradient
       inkscape:collect="always"
       xlink:href="#linearGradient3616-8"
       id="linearGradient3771-4"
       x1="152.02826"
       y1="234.82449"
       x2="145.35454"
       y2="796.4693"
       gradientUnits="userSpaceOnUse" />
    <linearGradient
       id="linearGradient3616-8">
      <stop
         style="stop-color:#747171;stop-opacity:1;"
         offset="0"
         id="stop3618-0" />
      <stop
         style="stop-color:#ffffff;stop-opacity:0.98319328;"
         offset="1"
         id="stop3620-9" />
    </linearGradient>
    <linearGradient
       gradientTransform="translate(390.02631,12.446103)"
       y2="274.22043"
       x2="145.35454"
       y1="743.94141"
       x1="152.02826"
       gradientUnits="userSpaceOnUse"
       id="linearGradient3790"
       xlink:href="#linearGradient3616-8"
       inkscape:collect="always" />
    <linearGradient
       inkscape:collect="always"
       xlink:href="#linearGradient3616"
       id="linearGradient3827"
       x1="295"
       y1="179.84807"
       x2="295"
       y2="-10.060616"
       gradientUnits="userSpaceOnUse" />
    <inkscape:perspective
       id="perspective3837"
       inkscape:persp3d-origin="0.5 : 0.33333333 : 1"
       inkscape:vp_z="1 : 0.5 : 1"
       inkscape:vp_y="0 : 1000 : 0"
       inkscape:vp_x="0 : 0.5 : 1"
       sodipodi:type="inkscape:persp3d" />
    <linearGradient
       gradientTransform="translate(389.01616,11.435951)"
       y2="796.4693"
       x2="145.35454"
       y1="234.82449"
       x1="152.02826"
       gradientUnits="userSpaceOnUse"
       id="linearGradient3790-4"
       xlink:href="#linearGradient3616-8-9"
       inkscape:collect="always" />
    <linearGradient
       id="linearGradient3616-8-9">
      <stop
         style="stop-color:#747171;stop-opacity:1;"
         offset="0"
         id="stop3618-0-6" />
      <stop
         style="stop-color:#ffffff;stop-opacity:0.98319328;"
         offset="1"
         id="stop3620-9-1" />
    </linearGradient>
    <inkscape:perspective
       id="perspective3875"
       inkscape:persp3d-origin="0.5 : 0.33333333 : 1"
       inkscape:vp_z="1 : 0.5 : 1"
       inkscape:vp_y="0 : 1000 : 0"
       inkscape:vp_x="0 : 0.5 : 1"
       sodipodi:type="inkscape:persp3d" />
    <linearGradient
       gradientTransform="translate(389.01616,11.435951)"
       y2="796.4693"
       x2="145.35454"
       y1="234.82449"
       x1="152.02826"
       gradientUnits="userSpaceOnUse"
       id="linearGradient3790-8"
       xlink:href="#linearGradient3616-8-8"
       inkscape:collect="always" />
    <linearGradient
       id="linearGradient3616-8-8">
      <stop
         style="stop-color:#747171;stop-opacity:1;"
         offset="0"
         id="stop3618-0-8" />
      <stop
         style="stop-color:#ffffff;stop-opacity:0.98319328;"
         offset="1"
         id="stop3620-9-9" />
    </linearGradient>
    <linearGradient
       y2="796.4693"
       x2="145.35454"
       y1="234.82449"
       x1="152.02826"
       gradientTransform="translate(412.24967,-18.868625)"
       gradientUnits="userSpaceOnUse"
       id="linearGradient3884"
       xlink:href="#linearGradient3616-8-8"
       inkscape:collect="always" />
    <inkscape:perspective
       id="perspective3913"
       inkscape:persp3d-origin="0.5 : 0.33333333 : 1"
       inkscape:vp_z="1 : 0.5 : 1"
       inkscape:vp_y="0 : 1000 : 0"
       inkscape:vp_x="0 : 0.5 : 1"
       sodipodi:type="inkscape:persp3d" />
    <inkscape:perspective
       id="perspective3935"
       inkscape:persp3d-origin="0.5 : 0.33333333 : 1"
       inkscape:vp_z="1 : 0.5 : 1"
       inkscape:vp_y="0 : 1000 : 0"
       inkscape:vp_x="0 : 0.5 : 1"
       sodipodi:type="inkscape:persp3d" />
  </defs>
  <sodipodi:namedview
     id="base"
     pagecolor="#ffffff"
     bordercolor="#666666"
     borderopacity="1.0"
     inkscape:pageopacity="0.0"
     inkscape:pageshadow="2"
     inkscape:zoom="0.98994949"
     inkscape:cx="454.75712"
     inkscape:cy="523.02874"
     inkscape:document-units="px"
     inkscape:current-layer="layer1"
     showgrid="false"
     inkscape:window-width="1440"
     inkscape:window-height="851"
     inkscape:window-x="0"
     inkscape:window-y="26" />
  <metadata
     id="metadata7">
    <rdf:RDF>
      <cc:Work
         rdf:about="">
        <dc:format>image/svg+xml</dc:format>
        <dc:type
           rdf:resource="http://purl.org/dc/dcmitype/StillImage" />
        <dc:title />
      </cc:Work>
    </rdf:RDF>
  </metadata>
  <g
     inkscape:label="Capa 1"
     inkscape:groupmode="layer"
     id="layer1">
    <path
       style="opacity:0.69685041000000003;fill:url(#linearGradient3790);fill-opacity:1;stroke:#716e6e;stroke-width:10;stroke-linecap:round;stroke-linejoin:miter;stroke-miterlimit:4;stroke-opacity:1;stroke-dasharray:none"
       d="m 526.29029,204.43192 c 12.99775,0.45046 30.11568,-3.40357 36.81163,11.41469 8.25095,17.81439 3.60875,38.03803 4.83231,57.04424 -0.0727,168.73001 0.14545,337.46495 -0.10912,506.19189 0.31056,16.21472 -12.88654,31.60626 -29.7445,28.2063 -13.75289,2.13396 -31.80093,19.18607 -34.37206,4.0611 -3.35944,-23.16709 2.11303,-70.10078 1.36853,-93.5039 0.0727,-161.73539 -0.14545,-323.47571 0.10913,-485.20802 0.79986,-12.00184 7.12786,-27.49217 21.10408,-28.2063 z"
       id="rect3762-4"
       sodipodi:nodetypes="ccccccccc" />
    <path
       style="opacity:0.69685041000000003;fill:url(#linearGradient3771);stroke:#716e6e;stroke-width:10;stroke-linecap:round;stroke-linejoin:miter;stroke-miterlimit:4;stroke-opacity:1;stroke-dasharray:none;fill-opacity:1"
       d="m 136.26398,191.98581 c 12.99775,0.45046 30.11568,-3.40357 36.81163,11.41469 8.25095,17.81439 3.60875,38.03803 4.83231,57.04424 -0.0727,168.73001 0.14545,337.46495 -0.10912,506.19189 0.31056,16.21472 -12.88654,31.60626 -29.7445,28.2063 -13.75289,2.13396 -31.80093,19.18607 -34.37206,4.0611 -3.35944,-23.16709 2.11303,-70.10078 1.36853,-93.5039 0.0727,-161.73539 -0.14545,-323.47571 0.10913,-485.20802 0.79986,-12.00184 7.12786,-27.49217 21.10408,-28.2063 z"
       id="rect3762"
       sodipodi:nodetypes="ccccccccc" />
    <path
       style="opacity:0.73228346;fill:none;stroke:#f7f7f7;stroke-width:8.41493606999999955;stroke-linecap:round;stroke-linejoin:miter;stroke-miterlimit:4;stroke-opacity:1;stroke-dasharray:none"
       d="m 139.04145,240.00524 c 9.18012,0.45163 21.27027,-3.41237 25.99953,11.44419 5.82753,17.86043 2.54881,38.13635 3.41299,57.19168 -0.0513,169.16613 0.10276,338.33718 -0.0771,507.50023 0.21935,16.25664 -9.10158,31.68796 -21.00812,28.27921 -9.71347,2.13948 -22.46055,19.23567 -24.2765,4.07159 -2.37272,-23.22696 1.4924,-70.28196 0.96657,-93.74557 0.0513,-162.15344 -0.10276,-324.3118 0.0771,-486.46213 0.56492,-12.03285 5.03429,-27.56324 14.90551,-28.2792 z"
       id="rect3762-4-4-1"
       sodipodi:nodetypes="ccccccccc" />
    <path
       style="opacity:0.73228347;fill:none;stroke:#f7f7f7;stroke-width:8.33090878;stroke-linecap:round;stroke-linejoin:miter;stroke-miterlimit:4;stroke-opacity:1;stroke-dasharray:none"
       d="m 530.60401,246.02415 c 8.99648,0.45168 20.84476,-3.41284 25.47941,11.44575 5.71095,17.86287 2.49783,38.14156 3.34471,57.1995 -0.0503,169.18925 0.10071,338.38343 -0.0756,507.5696 0.21496,16.25885 -8.91951,31.69229 -20.58785,28.28307 -9.51915,2.13977 -22.01123,19.23829 -23.79085,4.07215 -2.32525,-23.23013 1.46255,-70.29157 0.94724,-93.75839 0.0503,-162.17559 -0.10071,-324.35612 0.0756,-486.52862 0.55363,-12.03449 4.93359,-27.56701 14.60733,-28.28306 z"
       id="rect3762-4-4-1-6"
       sodipodi:nodetypes="ccccccccc" />
    <path
       style="opacity:1;fill:url(#linearGradient3722);fill-opacity:1;fill-rule:evenodd;stroke:#939090;stroke-width:20;stroke-miterlimit:4;stroke-opacity:1;stroke-dasharray:none"
       d="m 155.21687,155.93846 c 125.33507,0 250.72769,-1.53383 376.00985,0.19107 24.21925,0.33345 33.94965,26.64393 33.33472,48.73375 -2.84617,102.24114 -177.14286,210.63112 -177.11899,313.09013 0.0239,102.45902 178.41217,199.24615 176.92792,301.65559 -0.351,24.21776 -26.63779,33.87831 -48.73375,33.33471 C 394.45074,849.96234 272.7638,854.46856 151.40873,852.75265 127.18971,852.4102 117.45908,826.10872 118.07401,804.0189 120.92019,701.77775 299.50257,614.81635 299.47868,512.35733 299.45479,409.89832 116.80245,291.67433 118.26504,189.27318 118.53,170.722 136.65162,155.93846 155.21684,155.93846 l 3e-5,0 z"
       id="rect2842"
       sodipodi:nodetypes="csssssssssss" />
    <path
       style="opacity:0.69685039000000004;fill:none;stroke:#d1cece;stroke-width:10;stroke-miterlimit:4;stroke-opacity:1;stroke-dasharray:none"
       d="m 161.72784,171.61822 c 28.78404,-3.43287 219.21978,1.73196 359.40299,-2.89971 30.82351,-1.02363 23.5997,14.59347 28.09654,47.72564 4.47505,32.97164 -183.88411,206.75153 -171.12018,301.00704 13.86643,102.39689 162.16642,200.27664 175.22439,286.57281 5.384,35.58121 -18.87733,40.75582 -39.8685,40.2394 -115.12658,-2.8323 -238.58632,2.87719 -353.87364,1.24707 C 136.58137,845.18515 120.27675,824.83035 126.49289,794.2134 145.70765,699.57307 325.35897,606.14926 310.2559,509.99205 294.51891,409.79886 242.57255,376.1011 172.88756,283.6836 147.83025,250.45214 114.06949,177.3021 147.26878,173.34265 l 14.45906,-1.72443 z"
       id="rect2842-1"
       sodipodi:nodetypes="cszsssssssss" />
    <path
       sodipodi:type="arc"
       style="fill:url(#linearGradient3827);fill-opacity:1;fill-rule:evenodd;stroke:#716e6e;stroke-width:10;stroke-linecap:round;stroke-linejoin:miter;stroke-miterlimit:4;stroke-opacity:1;stroke-dasharray:none"
       id="path3811"
       sodipodi:cx="295"
       sodipodi:cy="103.07647"
       sodipodi:rx="227.85715"
       sodipodi:ry="80.714287"
       d="m 522.78774,105.06849 a 227.85715,80.714287 0 1 1 6.1e-4,-0.009"
       sodipodi:start="0.024682349"
       sodipodi:end="6.307759"
       sodipodi:open="true"
       transform="translate(48.571429,84.285714)" />
  </g>
</svg>
