<?xml version="1.0" encoding="UTF-8" standalone="no"?>
<!-- Created with Inkscape (http://www.inkscape.org/) -->
<svg
   xmlns:dc="http://purl.org/dc/elements/1.1/"
   xmlns:cc="http://creativecommons.org/ns#"
   xmlns:rdf="http://www.w3.org/1999/02/22-rdf-syntax-ns#"
   xmlns:svg="http://www.w3.org/2000/svg"
   xmlns="http://www.w3.org/2000/svg"
   xmlns:xlink="http://www.w3.org/1999/xlink"
   xmlns:sodipodi="http://sodipodi.sourceforge.net/DTD/sodipodi-0.dtd"
   xmlns:inkscape="http://www.inkscape.org/namespaces/inkscape"
   id="svg2"
   sodipodi:version="0.32"
   inkscape:version="0.46"
   width="32"
   height="32"
   version="1.0"
   sodipodi:docname="tag3.svg"
   inkscape:output_extension="org.inkscape.output.svg.inkscape">
  <metadata
     id="metadata7">
    <rdf:RDF>
      <cc:Work
         rdf:about="">
        <dc:format>image/svg+xml</dc:format>
        <dc:type
           rdf:resource="http://purl.org/dc/dcmitype/StillImage" />
      </cc:Work>
    </rdf:RDF>
  </metadata>
  <defs
     id="defs5">
    <linearGradient
       id="linearGradient3173">
      <stop
         id="stop3175"
         offset="0"
         style="stop-color:#108a1b;stop-opacity:1;" />
      <stop
         id="stop3177"
         offset="1"
         style="stop-color:#75fa83;stop-opacity:0.99607843;" />
    </linearGradient>
    <linearGradient
       id="linearGradient3165">
      <stop
         style="stop-color:#000000;stop-opacity:1;"
         offset="0"
         id="stop3167" />
      <stop
         style="stop-color:#000000;stop-opacity:0;"
         offset="1"
         id="stop3169" />
    </linearGradient>
    <inkscape:perspective
       sodipodi:type="inkscape:persp3d"
       inkscape:vp_x="0 : 526.18109 : 1"
       inkscape:vp_y="0 : 1000 : 0"
       inkscape:vp_z="744.09448 : 526.18109 : 1"
       inkscape:persp3d-origin="372.04724 : 350.78739 : 1"
       id="perspective9" />
    <linearGradient
       inkscape:collect="always"
       xlink:href="#linearGradient3173"
       id="linearGradient3185"
       x1="0.71410096"
       y1="18.474821"
       x2="20.288841"
       y2="7.1116672"
       gradientUnits="userSpaceOnUse"
       gradientTransform="matrix(0.8787296,-0.4773199,0.4773199,0.8787296,-2.8844769,7.6886523)" />
    <filter
       inkscape:collect="always"
       id="filter3243"
       x="-0.084383289"
       width="1.1687666"
       y="-0.2076421"
       height="1.4152842">
      <feGaussianBlur
         inkscape:collect="always"
         stdDeviation="0.57167861"
         id="feGaussianBlur3245" />
    </filter>
  </defs>
  <sodipodi:namedview
     inkscape:window-height="851"
     inkscape:window-width="1440"
     inkscape:pageshadow="2"
     inkscape:pageopacity="0.0"
     guidetolerance="10.0"
     gridtolerance="10.0"
     objecttolerance="10.0"
     borderopacity="1.0"
     bordercolor="#666666"
     pagecolor="#ffffff"
     id="base"
     showgrid="false"
     inkscape:zoom="21.831922"
     inkscape:cx="13.19142"
     inkscape:cy="18.940109"
     inkscape:window-x="0"
     inkscape:window-y="26"
     inkscape:current-layer="svg2" />
  <path
     style="opacity:0.87867647;fill:none;fill-opacity:1;fill-rule:nonzero;stroke:#b0adad;stroke-width:0.40000001;stroke-linecap:round;stroke-linejoin:round;stroke-miterlimit:4;stroke-dasharray:none;stroke-opacity:1"
     d="M 30.139353,8.6168089 C 30.147169,9.9637569 27.945738,9.6833421 26.720352,10.048468 C 25.08521,10.574831 24.530617,10.429093 23.125112,9.9822758 C 22.040442,9.6374533 21.98227,8.4469458 22.756053,7.6253452 C 24.315607,5.8977529 28.071974,5.1922485 29.554587,7.0001128 C 29.919497,7.4556538 30.142413,8.0299331 30.139353,8.6168089 z"
     id="path3277"
     sodipodi:nodetypes="ccsccc" />
  <path
     style="opacity:1;fill:url(#linearGradient3185);fill-opacity:1;fill-rule:nonzero;stroke:#3ccd5f;stroke-width:0.40000001000000002;stroke-linecap:round;stroke-linejoin:round;stroke-miterlimit:4;stroke-dasharray:none;stroke-opacity:1"
     d="M 4.1589152,15.362586 C 8.7416911,12.880058 13.313583,10.376207 17.903175,7.9070355 C 18.791795,7.4716993 19.241875,6.9155312 20.458382,7.3704015 C 21.535045,7.974953 24.148156,8.7346952 24.608452,9.5792627 C 25.068749,10.42383 24.129574,12.759185 24.032958,13.838399 C 23.739573,15.098213 22.835683,15.867549 21.898307,16.268203 C 17.392023,18.70918 12.896621,21.17148 8.3835224,23.599103 C 7.4949023,24.034439 6.1983426,23.818507 5.7840599,22.832868 C 4.8723752,21.139327 3.934668,19.458653 3.0393947,17.756996 C 2.6738575,16.816614 3.3293947,15.79338 4.1589152,15.362586 z"
     id="rect2384"
     sodipodi:nodetypes="cccccccccc" />
  <rect
     style="opacity:0.87867647;fill:#ffffff;fill-opacity:1;fill-rule:nonzero;stroke:#d0eeec;stroke-width:0.243;stroke-linecap:round;stroke-linejoin:round;stroke-miterlimit:4;stroke-dasharray:none;stroke-opacity:1;filter:url(#filter3243)"
     id="rect3187"
     width="16.016483"
     height="6.3646612"
     x="5.1091676"
     y="11.716455"
     rx="6.6067996"
     ry="0"
     transform="matrix(0.8787296,-0.4773199,0.4773199,0.8787296,-5.3988686,8.7595847)" />
  <rect
     style="opacity:0.87867647;fill:#ffffff;fill-opacity:1;fill-rule:nonzero;stroke:#877878;stroke-width:0.27298391;stroke-linecap:round;stroke-linejoin:round;stroke-miterlimit:4;stroke-dasharray:none;stroke-opacity:1"
     id="rect3247"
     width="11.981267"
     height="0.029850444"
     x="-1.7013286"
     y="18.303774"
     rx="5.9578977"
     ry="0"
     transform="matrix(0.8787296,-0.4773199,0.4773199,0.8787296,0,0)" />
  <rect
     style="opacity:0.87867647;fill:#ffffff;fill-opacity:1;fill-rule:nonzero;stroke:#877878;stroke-width:0.27298391;stroke-linecap:round;stroke-linejoin:round;stroke-miterlimit:4;stroke-dasharray:none;stroke-opacity:1"
     id="rect3249"
     width="11.981267"
     height="0.029850444"
     x="-1.7337173"
     y="19.324017"
     rx="5.9578977"
     ry="0"
     transform="matrix(0.8787296,-0.4773199,0.4773199,0.8787296,0,0)" />
  <rect
     style="opacity:0.87867647;fill:#ffffff;fill-opacity:1;fill-rule:nonzero;stroke:#877878;stroke-width:0.27298391;stroke-linecap:round;stroke-linejoin:round;stroke-miterlimit:4;stroke-dasharray:none;stroke-opacity:1"
     id="rect3253"
     width="11.981267"
     height="0.029850444"
     x="-1.7337173"
     y="20.490009"
     rx="5.9578977"
     ry="0"
     transform="matrix(0.8787296,-0.4773199,0.4773199,0.8787296,0,0)" />
  <rect
     style="opacity:0.87867647;fill:#ffffff;fill-opacity:1;fill-rule:nonzero;stroke:#877878;stroke-width:0.27298391;stroke-linecap:round;stroke-linejoin:round;stroke-miterlimit:4;stroke-dasharray:none;stroke-opacity:1"
     id="rect3255"
     width="11.981267"
     height="0.029850444"
     x="-1.766106"
     y="21.850332"
     rx="5.9578977"
     ry="0"
     transform="matrix(0.8787296,-0.4773199,0.4773199,0.8787296,0,0)" />
  <path
     sodipodi:type="arc"
     style="opacity:0.87867647000000004;fill:none;fill-opacity:1;fill-rule:nonzero;stroke:#6f6666;stroke-width:0.40000001000000002;stroke-linecap:round;stroke-linejoin:round;stroke-miterlimit:4;stroke-dasharray:none;stroke-opacity:1"
     id="path3280"
     sodipodi:cx="22.639677"
     sodipodi:cy="9.7813768"
     sodipodi:rx="0.84210527"
     sodipodi:ry="0.48582995"
     d="M 23.481782,9.7813768 A 0.84210527,0.48582995 0 1 1 21.797572,9.7813768 A 0.84210527,0.48582995 0 1 1 23.481782,9.7813768 z" />
  <path
     style="fill:#b1adad;fill-rule:evenodd;stroke:#b9adad;stroke-width:0.40000000000000002;stroke-linecap:butt;stroke-linejoin:round;stroke-opacity:1;stroke-miterlimit:4;stroke-dasharray:none;fill-opacity:0.87843137999999998"
     d="M 24.939271,10.396761 C 24.939271,10.393874 24.874411,10.412955 24.825911,10.412955 C 24.713916,10.412955 24.6137,10.42915 24.502024,10.42915 C 24.430624,10.42915 24.257848,10.411695 24.210526,10.364372 C 24.206176,10.360022 23.9583,10.303037 23.919028,10.283401 C 23.845596,10.246684 23.625259,10.165498 23.595142,10.105263 C 23.587508,10.089995 23.562753,10.094467 23.546559,10.089069 C 23.479091,10.06658 23.393107,9.9757085 23.368421,9.9757085 C 23.339915,9.9757085 23.279529,9.8947368 23.222672,9.8947368 C 23.208538,9.8947368 23.157895,9.8514567 23.157895,9.8461538"
     id="path3286" />
</svg>
