/* XPM */
static char * gnome_zeitgeist_xpm[] = {
"32 32 396 2",
"  	c None",
". 	c #6B6D68",
"+ 	c #696A66",
"@ 	c #686A65",
"# 	c #676964",
"$ 	c #6F706C",
"% 	c #939592",
"& 	c #B3B4B3",
"* 	c #CDCDCC",
"= 	c #E1E1E0",
"- 	c #DFE0DF",
"; 	c #C9C9C8",
"> 	c #ACAEAB",
", 	c #8A8B87",
"' 	c #646662",
") 	c #6A6B66",
"! 	c #9B9D99",
"~ 	c #E4E4E4",
"{ 	c #C8CCD2",
"] 	c #A5AEBA",
"^ 	c #7B8A9F",
"/ 	c #4E6380",
"( 	c #4E637E",
"_ 	c #79889C",
": 	c #A0A9B5",
"< 	c #C0C5CB",
"[ 	c #DBDBDA",
"} 	c #8C8D8A",
"| 	c #5E605B",
"1 	c #72736F",
"2 	c #CACAC9",
"3 	c #DCDEE1",
"4 	c #687A92",
"5 	c #637792",
"6 	c #8CA0B8",
"7 	c #A9BCD2",
"8 	c #BBCDE1",
"9 	c #B1C6DD",
"0 	c #99AFC8",
"a 	c #7F94AF",
"b 	c #5C6F8B",
"c 	c #65758B",
"d 	c #CFD2D4",
"e 	c #B8BAB8",
"f 	c #60625E",
"g 	c #72746F",
"h 	c #E2E3E3",
"i 	c #AFB7C2",
"j 	c #516682",
"k 	c #A3B6CC",
"l 	c #C8D9EC",
"m 	c #C5D7EB",
"n 	c #C3D6EB",
"o 	c #C0D4EA",
"p 	c #BED2E9",
"q 	c #BCD0E8",
"r 	c #B9CFE7",
"s 	c #B6CDE6",
"t 	c #8DA3BE",
"u 	c #4C607B",
"v 	c #A0A8B3",
"w 	c #D1D3D2",
"x 	c #5F615D",
"y 	c #6A6C67",
"z 	c #CBCCCA",
"A 	c #B0B8C3",
"B 	c #677C97",
"C 	c #C0D2E5",
"D 	c #C6D7EC",
"E 	c #C1D4EA",
"F 	c #BCD1E8",
"G 	c #BACFE7",
"H 	c #B3C2D1",
"I 	c #A9AFAF",
"J 	c #A3B0BD",
"K 	c #AFC8E4",
"L 	c #A4BDD9",
"M 	c #5B6F8A",
"N 	c #9FA7B2",
"O 	c #B4B5B3",
"P 	c #5B5D59",
"Q 	c #DDDFE1",
"R 	c #4D6280",
"S 	c #BCCEE3",
"T 	c #C4D6EB",
"U 	c #C1D5EA",
"V 	c #BFD3E9",
"W 	c #BDD1E8",
"X 	c #BACFE8",
"Y 	c #B8CEE7",
"Z 	c #B4CAE2",
"` 	c #A7AAA9",
" .	c #C6C7C4",
"..	c #878B8B",
"+.	c #ABC5E2",
"@.	c #A9C3E2",
"#.	c #9CB7D6",
"$.	c #495D78",
"%.	c #C9CCCF",
"&.	c #818380",
"*.	c #6E716C",
"=.	c #E5E5E5",
"-.	c #6A7C93",
";.	c #9DB0C8",
">.	c #C2D5EA",
",.	c #BDD2E9",
"'.	c #BBD0E8",
").	c #B6CCE6",
"!.	c #B4CBE5",
"~.	c #AAB6BF",
"{.	c #BBBEBC",
"].	c #9FA1A1",
"^.	c #909FAD",
"/.	c #A7C2E1",
"(.	c #A4C0E0",
"_.	c #A2BFDF",
":.	c #7A94B3",
"<.	c #617187",
"[.	c #D0D1D0",
"}.	c #5C5E5B",
"|.	c #949492",
"1.	c #CACED4",
"2.	c #586E8B",
"3.	c #B7CEE6",
"4.	c #B7CDE5",
"5.	c #B7CCE5",
"6.	c #B4C7DB",
"7.	c #9C9D9C",
"8.	c #797E7E",
"9.	c #A5C0DF",
"0.	c #A0BDDF",
"a.	c #9DBBDE",
"b.	c #9BBADD",
"c.	c #516580",
"d.	c #B2B8BE",
"e.	c #797B77",
"f.	c #A7AFBB",
"g.	c #7A91AD",
"h.	c #B7CDE6",
"i.	c #B6CCE5",
"j.	c #B9CEE6",
"k.	c #C2D3E7",
"l.	c #C8D7E8",
"m.	c #C1C2C1",
"n.	c #7F8280",
"o.	c #99ABBF",
"p.	c #A8C2E1",
"q.	c #9EBCDE",
"r.	c #677F9D",
"s.	c #929BA6",
"t.	c #989996",
"u.	c #696C67",
"v.	c #CECFCD",
"w.	c #7C8BA0",
"x.	c #94ABC6",
"y.	c #B7CDE7",
"z.	c #B5CCE6",
"A.	c #C4D5E9",
"B.	c #CCDAE9",
"C.	c #9EB3C9",
"D.	c #597EAD",
"E.	c #567DAF",
"F.	c #6A7C90",
"G.	c #AEC7E2",
"H.	c #A9C3E1",
"I.	c #A1BEDF",
"J.	c #7B96B6",
"K.	c #6E7C8F",
"L.	c #B1B2AF",
"M.	c #5B5C58",
"N.	c #696B66",
"O.	c #E2E2E1",
"P.	c #4F6480",
"Q.	c #A9C0DA",
"R.	c #B3CBE5",
"S.	c #CBD9E8",
"T.	c #CBD9E7",
"U.	c #4C74A8",
"V.	c #B5C7DE",
"W.	c #ABC0DB",
"X.	c #4A75AB",
"Y.	c #B0C8E4",
"Z.	c #ADC6E3",
"`.	c #AAC4E2",
" +	c #A3BFDF",
".+	c #92ADCE",
"++	c #4B5D74",
"@+	c #C8C8C6",
"#+	c #595B58",
"$+	c #E2E3E2",
"%+	c #4F637F",
"&+	c #A4BCD8",
"*+	c #B2CAE4",
"=+	c #B1C8E4",
"-+	c #C4D4E6",
";+	c #CAD7E6",
">+	c #4873A9",
",+	c #8DACD1",
"'+	c #83A5CD",
")+	c #436EA4",
"!+	c #B1C0D0",
"~+	c #B3CAE5",
"{+	c #ACC6E3",
"]+	c #A8C3E1",
"^+	c #96B1D0",
"/+	c #CACBC8",
"(+	c #585A56",
"_+	c #CECECE",
":+	c #7A899D",
"<+	c #8BA2BF",
"[+	c #B1C9E4",
"}+	c #C1D3E7",
"|+	c #A3BAD6",
"1+	c #4673AB",
"2+	c #416DA3",
"3+	c #9AA9B9",
"4+	c #8E908C",
"5+	c #B0BFD0",
"6+	c #B9CEE7",
"7+	c #849CB8",
"8+	c #6C798C",
"9+	c #B2B3B0",
"0+	c #5C5E5A",
"a+	c #B5B5B3",
"b+	c #A2ABB7",
"c+	c #7087A5",
"d+	c #A9C4E1",
"e+	c #BBD0E7",
"f+	c #C5D6EA",
"g+	c #CCDAEB",
"h+	c #CFDDEC",
"i+	c #B2BDC7",
"j+	c #7E807C",
"k+	c #B9BAB8",
"l+	c #7A7C79",
"m+	c #ABBACA",
"n+	c #6F85A0",
"o+	c #8E97A2",
"p+	c #929391",
"q+	c #C2C7CD",
"r+	c #506683",
"s+	c #C2D4E9",
"t+	c #C7D7EA",
"u+	c #CBDBED",
"v+	c #CCDBED",
"w+	c #A9B4C0",
"x+	c #656864",
"y+	c #ACADAC",
"z+	c #626461",
"A+	c #A4B4C4",
"B+	c #556881",
"C+	c #ABB2B7",
"D+	c #787A76",
"E+	c #6F716D",
"F+	c #E1E1E1",
"G+	c #67778E",
"H+	c #7E97B4",
"I+	c #C0D3E9",
"J+	c #CADAED",
"K+	c #CFDDEE",
"L+	c #D1DFEF",
"M+	c #D2E0F0",
"N+	c #ABB4BF",
"O+	c #707474",
"P+	c #899DB6",
"Q+	c #5F6E83",
"R+	c #CECFCC",
"S+	c #5A5D58",
"T+	c #9FA09D",
"U+	c #D3D6D8",
"V+	c #485C77",
"W+	c #A3BBD7",
"X+	c #CEDDEE",
"Y+	c #D3E0F0",
"Z+	c #D7E3F1",
"`+	c #D9E4F2",
" @	c #D6E2F1",
".@	c #A9B4BD",
"+@	c #6E7271",
"@@	c #8C959A",
"#@	c #B2C5DB",
"$@	c #4A5B74",
"%@	c #C1C4C5",
"&@	c #888A86",
"*@	c #C9CAC8",
"=@	c #A4ABB6",
"-@	c #576B87",
";@	c #A9C0D9",
">@	c #C3D5EA",
",@	c #C9D9EC",
"'@	c #D5E1F0",
")@	c #DBE6F3",
"!@	c #DFE8F4",
"~@	c #DAE5F2",
"{@	c #D4E1F0",
"]@	c #B9C9DE",
"^@	c #5C6D85",
"/@	c #949DA6",
"(@	c #B5B7B4",
"_@	c #5A5C58",
":@	c #71736F",
"<@	c #DBDCDB",
"[@	c #A3AAB5",
"}@	c #495C77",
"|@	c #8CA0B9",
"1@	c #C2D4EA",
"2@	c #D3E1F0",
"3@	c #DCE6F3",
"4@	c #98A7BC",
"5@	c #4A5C74",
"6@	c #CFD1CE",
"7@	c #949591",
"8@	c #4C4C4A",
"9@	c #6F716C",
"0@	c #C6C8C5",
"a@	c #CDCFD2",
"b@	c #657489",
"c@	c #5B6D85",
"d@	c #7F91A8",
"e@	c #9EAEC4",
"f@	c #BDCCDE",
"g@	c #C0CEDF",
"h@	c #A5B4C6",
"i@	c #8696AA",
"j@	c #5F6F86",
"k@	c #616E84",
"l@	c #C5C5C3",
"m@	c #BFBFBE",
"n@	c #AFB0AD",
"o@	c #6B6B6A",
"p@	c #626460",
"q@	c #9B9C99",
"r@	c #D9DAD9",
"s@	c #B6BCC1",
"t@	c #959EA9",
"u@	c #737F92",
"v@	c #4F5F76",
"w@	c #4E5F75",
"x@	c #707D8E",
"y@	c #9099A4",
"z@	c #AEB3B7",
"A@	c #D1D1CF",
"B@	c #90918E",
"C@	c #A0A19E",
"D@	c #CCCCCA",
"E@	c #DADAD9",
"F@	c #A9AAA8",
"G@	c #545551",
"H@	c #464642",
"I@	c #5F605C",
"J@	c #686A66",
"K@	c #929490",
"L@	c #AEAFAD",
"M@	c #D8D9D7",
"N@	c #D7D8D6",
"O@	c #C3C3C1",
"P@	c #A9A9A7",
"Q@	c #8B8D89",
"R@	c #61635F",
"S@	c #575A56",
"T@	c #4D4E4B",
"U@	c #999996",
"V@	c #EBEBE7",
"W@	c #DFDFDE",
"X@	c #AAAAA8",
"Y@	c #555552",
"Z@	c #454540",
"`@	c #5B5D5A",
" #	c #5A5C59",
".#	c #575955",
"+#	c #5A5D59",
"@#	c #4C4C49",
"##	c #82827E",
"$#	c #ECECE9",
"%#	c #E1E1DF",
"&#	c #ABABA9",
"*#	c #434340",
"=#	c #4A4A47",
"-#	c #7C7D7B",
";#	c #E2E3E0",
">#	c #ADAEAB",
",#	c #555654",
"'#	c #42423F",
")#	c #484944",
"!#	c #787976",
"~#	c #E5E5E3",
"{#	c #454643",
"]#	c #727370",
"^#	c #E6E6E4",
"/#	c #8B8C89",
"(#	c #414240",
"_#	c #434441",
":#	c #6A6B67",
"<#	c #B3B3B1",
"[#	c #474845",
"}#	c #444642",
"                                                                ",
"                                                                ",
"                          . + @ #                               ",
"                    $ % & * = - ; > , '                         ",
"                ) ! ~ { ] ^ / ( _ : < [ } |                     ",
"              1 2 3 4 5 6 7 8 9 0 a b c d e f                   ",
"            g h i j k l m n o p q r s t u v w x                 ",
"          y z A B C D n E p F G H I J K L M N O P               ",
"          ! Q R S T U V W X Y Z `  ...+.@.#.$.%.&.              ",
"        *.=.-.;.>.V ,.'.Y ).!.~.{.].^./.(._.:.<.[.}.            ",
"        |.1.2.o p '.r 3.4.5.6.7.* 8.9._.0.a.b.c.d.e.            ",
"        O f.g.F r h.i.j.k.l.I m.n.o.p.(.q.b.b.r.s.t.            ",
"      u.v.w.x.y.z.).).A.B.C.D.E.F.G.H./.(.I.q.J.K.L.M.          ",
"      N.O.P.Q.R.!.z.y.S.T.U.V.W.X.j.Y.Z.`./. +.+++@+#+          ",
"      N.$+%+&+*+!.!.=+-+;+>+,+'+)+!+).~+Y.{+]+^+++/+(+          ",
"      . _+:+<+[+Y.Z.*+}+B.|+1+2+3+4+5+6+z.[+Z.7+8+9+0+          ",
"        a+b+c+d++.Y.z.e+f+g+h+i+j+k+l+m+G ).[+n+o+t.            ",
"        p+q+r+]+Z.~+Y W s+t+u+v+w+x+y+z+A+G z.B+C+D+            ",
"        E+F+G+H+K z.'.I+m J+K+L+M+N+x+t.O+p P+Q+R+S+            ",
"          T+U+V+W+).F >.l X+Y+Z+`+ @.@+@@@#@$@%@&@              ",
"          N.*@=@-@;@W >@,@K+'@)@!@~@{@X+]@^@/@(@_@              ",
"            :@<@[@}@|@1@l X+2@`+3@`+Y+4@5@/@6@7@8@              ",
"              9@0@a@b@c@d@e@f@g@h@i@j@k@%@l@m@n@o@              ",
"                p@q@r@s@t@u@v@w@x@y@z@A@B@C@D@E@F@G@H@          ",
"                  I@J@K@L@ .M@N@O@P@Q@R@S@T@U@V@W@X@Y@Z@        ",
"                        `@ #.#.# #+#        @###$#%#&#Y@*#      ",
"                                              =#-#$#;#>#,#'#    ",
"                                                )#!#$#~#n@Y@    ",
"                                                  {#]#$#^#/#(#  ",
"                                                    _#:#<#[#    ",
"                                                        }#      ",
"                                                                "};
